<?xml version="1.0" standalone="no"?>
<!DOCTYPE svg PUBLIC "-//W3C//DTD SVG 20010904//EN"
 "http://www.w3.org/TR/2001/REC-SVG-20010904/DTD/svg10.dtd">
<svg version="1.0" xmlns="http://www.w3.org/2000/svg" width="250px" height="250px" viewBox="0 0 1338.000000 586.000000" preserveAspectRatio="xMidYMid meet">

<g transform="translate(0.000000,586.000000) scale(0.100000,-0.100000)" fill="#00A523" stroke="none">
<path d="M6510 5840 c-683 -42 -1167 -352 -1456 -932 -239 -477 -354 -1121
-354 -1978 0 -1015 176 -1745 543 -2253 27 -38 53 -65 58 -60 4 4 145 345 313
756 l305 749 -9 101 c-21 220 -31 692 -21 995 22 616 80 980 201 1257 33 77
125 209 178 255 60 54 130 94 212 122 55 19 86 23 195 23 139 0 193 -12 284
-61 24 -13 46 -22 49 -20 6 7 382 929 379 932 -9 8 -207 65 -272 78 -175 34
-406 48 -605 36z"></path>
<path d="M1247 3923 l-1247 -1837 0 -413 0 -413 1215 0 1215 0 0 -590 0 -590
580 0 580 0 2 588 3 587 343 3 342 2 0 465 0 465 -345 0 -345 0 0 1785 0 1785
-548 0 -547 0 -1248 -1837z m1229 430 c-7 -45 -23 -354 -36 -698 -5 -137 -10
-523 -10 -857 l0 -608 -685 0 c-377 0 -685 2 -685 5 0 2 221 338 492 747 707
1070 692 1045 824 1311 51 102 73 137 87 137 16 0 18 -6 13 -37z"></path>
<path d="M11392 5483 c-103 -153 -664 -978 -1245 -1835 l-1057 -1556 0 -416 0
-416 1210 0 1210 0 0 -590 0 -590 585 0 585 0 0 590 0 590 340 0 340 0 0 465
0 465 -340 0 -340 0 0 1785 0 1785 -549 0 -550 0 -189 -277z m164 -1190 c-28
-432 -46 -1058 -46 -1640 l0 -463 -686 0 c-548 0 -684 3 -677 13 33 42 1112
1681 1163 1767 34 58 98 176 142 263 97 195 114 204 104 60z"></path>
<path d="M7818 4227 l-348 -852 -4 -495 c-2 -272 -9 -549 -15 -615 -52 -540
-130 -835 -277 -1041 -90 -128 -224 -218 -361 -244 -62 -12 -272 -10 -303 4
-12 5 -54 -90 -201 -452 l-186 -457 46 -12 c262 -71 728 -73 1024 -3 212 49
392 125 561 237 140 92 326 280 425 428 273 409 425 977 472 1763 15 251 7
840 -15 1062 -59 594 -188 1056 -397 1421 -34 60 -65 109 -68 109 -3 0 -162
-384 -353 -853z"></path>
</g>
</svg>
